<?xml version="1.0" encoding="utf-8"?><svg xmlns="http://www.w3.org/2000/svg" xmlns:xlink="http://www.w3.org/1999/xlink"><symbol viewBox="0 0 344.96 344.96" id="check" xmlns="http://www.w3.org/2000/svg"><g data-name="Слой 2"><path d="M321.85 86.24l-40-23.11-23.1-40H212.5L172.48 0l-40 23.11H86.24l-23.11 40-40 23.1v46.21L0 172.48l23.11 40v46.21l40 23.11 23.11 40h46.21l40 23.1 40-23.11h46.21l23.11-40 40-23.11V212.5l23.11-40-23.11-40V86.24zM156.91 243.07a16.79 16.79 0 0 1-23.34 0l-50.45-50.44a16.19 16.19 0 0 1 0-22.89l13.35-13.35a16.19 16.19 0 0 1 22.89 0l25.87 25.87 80.34-80.35a16.19 16.19 0 0 1 22.89 0l13.35 13.35a16.19 16.19 0 0 1 0 22.89z" data-name="Capa 1"/></g></symbol><symbol class="bsvg-inline--fa bfa-facebook-f bfa-w-9" viewBox="0 0 264 512" id="fb" xmlns="http://www.w3.org/2000/svg"><path d="M215.8 85H264V3.6C255.7 2.5 227.1 0 193.8 0 124.3 0 76.7 42.4 76.7 120.3V192H0v91h76.7v229h94V283h73.6l11.7-91h-85.3v-62.7c0-26.3 7.3-44.3 45.1-44.3z"/></symbol><symbol class="csvg-inline--fa cfa-instagram cfa-w-14" viewBox="0 0 448 512" id="instagram" xmlns="http://www.w3.org/2000/svg"><path d="M224.1 141c-63.6 0-114.9 51.3-114.9 114.9s51.3 114.9 114.9 114.9S339 319.5 339 255.9 287.7 141 224.1 141zm0 189.6c-41.1 0-74.7-33.5-74.7-74.7s33.5-74.7 74.7-74.7 74.7 33.5 74.7 74.7-33.6 74.7-74.7 74.7zm146.4-194.3c0 14.9-12 26.8-26.8 26.8-14.9 0-26.8-12-26.8-26.8s12-26.8 26.8-26.8 26.8 12 26.8 26.8zm76.1 27.2c-1.7-35.9-9.9-67.7-36.2-93.9-26.2-26.2-58-34.4-93.9-36.2-37-2.1-147.9-2.1-184.9 0-35.8 1.7-67.6 9.9-93.9 36.1s-34.4 58-36.2 93.9c-2.1 37-2.1 147.9 0 184.9 1.7 35.9 9.9 67.7 36.2 93.9s58 34.4 93.9 36.2c37 2.1 147.9 2.1 184.9 0 35.9-1.7 67.7-9.9 93.9-36.2 26.2-26.2 34.4-58 36.2-93.9 2.1-37 2.1-147.8 0-184.8zM398.8 388c-7.8 19.6-22.9 34.7-42.6 42.6-29.5 11.7-99.5 9-132.1 9s-102.7 2.6-132.1-9c-19.6-7.8-34.7-22.9-42.6-42.6-11.7-29.5-9-99.5-9-132.1s-2.6-102.7 9-132.1c7.8-19.6 22.9-34.7 42.6-42.6 29.5-11.7 99.5-9 132.1-9s102.7-2.6 132.1 9c19.6 7.8 34.7 22.9 42.6 42.6 11.7 29.5 9 99.5 9 132.1s2.7 102.7-9 132.1z"/></symbol><symbol class="dsvg-inline--fa dfa-play dfa-w-14" viewBox="0 0 448 512" id="play" xmlns="http://www.w3.org/2000/svg"><path d="M424.4 214.7L72.4 6.6C43.8-10.3 0 6.1 0 47.9V464c0 37.5 40.7 60.1 72.4 41.3l352-208c31.4-18.5 31.5-64.1 0-82.6z"/></symbol><symbol viewBox="0 0 248 208" id="servise-1" xmlns="http://www.w3.org/2000/svg"><g data-name="Слой 2"><g data-name="Слой 1"><path d="M0 154V8l8-8h195c6.45 3.74 8.61 9.38 8.06 16.67-.44 5.78-.09 11.62-.09 17.44v15.66c8.17 0 15.63.28 23.06-.09 6.29-.3 11 1.7 14 7.32v143l-8 8H160c-6.12-2.62-8.51-7.14-8.11-13.86.46-7.63.08-15.31.07-23V163h-17.61c-2.21 9.95 2.28 17 8.37 23.62 1.25 1.37 2.35 4.2 1.74 5.56s-3.44 2.45-5.3 2.46q-33.47.26-66.92 0c-1.86 0-4.63-1.1-5.28-2.49s.74-3.82 1.69-5.53 2.58-3.05 3.76-4.65a23 23 0 0 0 4.2-19.35h-5.43c-18.65 0-37.29-.19-55.93.09C8.13 162.82 3 160.51 0 154zM203.08 49.76V15.12c0-6.59-.58-7.17-7.11-7.17H15c-6.58.05-7 .47-7 7.12Q7.94 65.54 8 116c0 1.6.14 3.2.22 4.8H152v-5.6l-.09-51.47c0-10.61 3.37-14 14-14zM160 174.59h79.67V81.22H160zm-8.28-44.93H8v17.33c0 7.4.4 7.78 8 7.79h135.76zm8.13 53.53c0 4.49.1 8.62 0 12.75-.1 3 1.25 4.14 4.17 4.13 24 0 47.94 0 71.91-.16 1.34 0 3.69-2 3.82-3.19.47-4.39.18-8.86.18-13.53zm.34-110.89h79.82a67.83 67.83 0 0 1 .06-8.36c.69-5.24-1.64-6.48-6.52-6.42-20.49.21-41 .09-61.46.08-13.88-.01-14.02.14-11.86 14.7zm-35.73 91H86.44c-2 8.2-4 15.77-5.84 23.33h50c-1.99-7.63-3.96-15.19-6.1-23.36z"/><path d="M200 197.41c-3.63-.34-5.91-2.15-5.92-6 0-3.53 2.08-5.65 5.49-5.83 3.7-.2 6.08 2 6.23 5.62s-2.16 5.8-5.8 6.21z"/></g></g></symbol><symbol class="fsvg-inline--fa ffa-vk ffa-w-18" viewBox="0 0 576 512" id="vk" xmlns="http://www.w3.org/2000/svg"><path d="M545 117.7c3.7-12.5 0-21.7-17.8-21.7h-58.9c-15 0-21.9 7.9-25.6 16.7 0 0-30 73.1-72.4 120.5-13.7 13.7-20 18.1-27.5 18.1-3.7 0-9.4-4.4-9.4-16.9V117.7c0-15-4.2-21.7-16.6-21.7h-92.6c-9.4 0-15 7-15 13.5 0 14.2 21.2 17.5 23.4 57.5v86.8c0 19-3.4 22.5-10.9 22.5-20 0-68.6-73.4-97.4-157.4-5.8-16.3-11.5-22.9-26.6-22.9H38.8c-16.8 0-20.2 7.9-20.2 16.7 0 15.6 20 93.1 93.1 195.5C160.4 378.1 229 416 291.4 416c37.5 0 42.1-8.4 42.1-22.9 0-66.8-3.4-73.1 15.4-73.1 8.7 0 23.7 4.4 58.7 38.1 40 40 46.6 57.9 69 57.9h58.9c16.8 0 25.3-8.4 20.4-25-11.2-34.9-86.9-106.7-90.3-111.5-8.7-11.2-6.2-16.2 0-26.2.1-.1 72-101.3 79.4-135.6z"/></symbol><symbol viewBox="0 0 228.71 150" id="why-1" xmlns="http://www.w3.org/2000/svg"><g data-name="Слой 2"><path d="M150 150h-2c-4.25-10.92-11.14-20-19.7-27.86a36.77 36.77 0 0 0-19-9.46c-8.22-1.37-14.73 1.3-19.74 7.8a37.29 37.29 0 0 0-7.32 18.87c-.44 3.82-1.32 4.67-5.12 3.6q-28.58-8-57.31-15.55c-3.39-.88-4.89-2.55-5.72-5.83C10.21 105.92 7 90 1.69 74.82c-3.94-11.28-.61-19.54 6-27.83.21-.26.41-.53.61-.79 19.43-25 45.63-38 76.28-43.27C91.67 1.71 99 2.26 106 0h10c4.32 2 9 1.23 13.57 1.81 42.85 5.53 75.1 27.1 97.55 63.77a9.48 9.48 0 0 1 1.19 8q-7.38 27.73-14.3 55.6c-.71 2.88-2.2 4.08-4.91 4.75-9.21 2.27-18.41 4.58-27.54 7.17C171 144.08 160.23 146 150 150zM20.23 110.29c2.13-1.12 2.59-3 3.5-4.52a155.17 155.17 0 0 1 24-30.6c18.17-17.7 39.64-25.64 65.05-22.28 19.76 2.61 36.32 11.44 50.2 25.52 1.88 1.9 3.53 3 6.5 2.21q22.35-6.2 44.84-11.94c3.54-.9 3.69-2.05 1.81-4.91C204.56 46.3 189.8 32.3 171 23.08 134.75 5.29 97.45 5.35 60 18.62a93.56 93.56 0 0 0-49.1 39.07c-1.38 2.18-3.38 4.23-2.58 7.25 3.94 15.06 7.9 30.13 11.91 45.35zm128.12 21.56c2.71-10.63 5.14-20.07 7.51-29.54 4.14-16.55 4.14-16.55-9.47-26.95-22.3-17.06-55.28-19.47-78-5.38-18.51 11.51-30.75 28.63-41.23 47.25-1.71 3 .38 3.25 2.36 3.79 13 3.52 26.07 6.82 39 10.71 4.73 1.43 6.26.46 7.94-4.22 8.45-23.51 27.85-30.24 49.45-17.64 8.92 5.22 15.57 12.82 22.44 21.98zm9 6.64l1.41-.34c15-3.93 29.9-7.9 44.88-11.74 2.25-.58 2.73-2.16 3.19-4 3.58-13.84 7.09-27.71 10.77-41.53 1-3.81-.07-4.34-3.59-3.37q-21.17 5.82-42.44 11.27c-2.86.72-4.1 2.08-4.72 4.89-1.35 6.17-3.07 12.26-4.61 18.39-1.95 7.74-3.91 15.48-5.78 23.24-.33 1.23-1.4 3.07.84 3.19z" data-name="Слой 1"/></g></symbol></svg>