<?xml version="1.0" encoding="utf-8"?><svg xmlns="http://www.w3.org/2000/svg" xmlns:xlink="http://www.w3.org/1999/xlink"><symbol viewBox="0 0 13 8" id="arrow" xmlns="http://www.w3.org/2000/svg"><path d="M.293 1.706L1.707.29 6.5 5.083 11.293.291l1.414 1.415-6 5.998-.207-.207-.207.207z"/></symbol><symbol viewBox="0 0 344.96 344.96" id="check" xmlns="http://www.w3.org/2000/svg"><g data-name="Слой 2"><path d="M321.85 86.24l-40-23.11-23.1-40H212.5L172.48 0l-40 23.11H86.24l-23.11 40-40 23.1v46.21L0 172.48l23.11 40v46.21l40 23.11 23.11 40h46.21l40 23.1 40-23.11h46.21l23.11-40 40-23.11V212.5l23.11-40-23.11-40V86.24zM156.91 243.07a16.79 16.79 0 0 1-23.34 0l-50.45-50.44a16.19 16.19 0 0 1 0-22.89l13.35-13.35a16.19 16.19 0 0 1 22.89 0l25.87 25.87 80.34-80.35a16.19 16.19 0 0 1 22.89 0l13.35 13.35a16.19 16.19 0 0 1 0 22.89z" data-name="Capa 1"/></g></symbol><symbol viewBox="0 0 14 11" id="check2" xmlns="http://www.w3.org/2000/svg"><path d="M.161 6.05A.601.601 0 0 1 0 5.665a.6.6 0 0 1 .16-.385l.754-.77a.513.513 0 0 1 .754 0l.054.054L4.684 7.81c.108.11.27.11.377 0L12.277.164h.054a.513.513 0 0 1 .753 0l.754.77a.54.54 0 0 1 0 .77l-8.615 9.13a.484.484 0 0 1-.377.166.483.483 0 0 1-.377-.165l-4.2-4.62z"/></symbol><symbol class="dsvg-inline--fa dfa-facebook-f dfa-w-9" viewBox="0 0 264 512" id="fb" xmlns="http://www.w3.org/2000/svg"><path d="M215.8 85H264V3.6C255.7 2.5 227.1 0 193.8 0 124.3 0 76.7 42.4 76.7 120.3V192H0v91h76.7v229h94V283h73.6l11.7-91h-85.3v-62.7c0-26.3 7.3-44.3 45.1-44.3z"/></symbol><symbol class="esvg-inline--fa efa-instagram efa-w-14" viewBox="0 0 448 512" id="instagram" xmlns="http://www.w3.org/2000/svg"><path d="M224.1 141c-63.6 0-114.9 51.3-114.9 114.9s51.3 114.9 114.9 114.9S339 319.5 339 255.9 287.7 141 224.1 141zm0 189.6c-41.1 0-74.7-33.5-74.7-74.7s33.5-74.7 74.7-74.7 74.7 33.5 74.7 74.7-33.6 74.7-74.7 74.7zm146.4-194.3c0 14.9-12 26.8-26.8 26.8-14.9 0-26.8-12-26.8-26.8s12-26.8 26.8-26.8 26.8 12 26.8 26.8zm76.1 27.2c-1.7-35.9-9.9-67.7-36.2-93.9-26.2-26.2-58-34.4-93.9-36.2-37-2.1-147.9-2.1-184.9 0-35.8 1.7-67.6 9.9-93.9 36.1s-34.4 58-36.2 93.9c-2.1 37-2.1 147.9 0 184.9 1.7 35.9 9.9 67.7 36.2 93.9s58 34.4 93.9 36.2c37 2.1 147.9 2.1 184.9 0 35.9-1.7 67.7-9.9 93.9-36.2 26.2-26.2 34.4-58 36.2-93.9 2.1-37 2.1-147.8 0-184.8zM398.8 388c-7.8 19.6-22.9 34.7-42.6 42.6-29.5 11.7-99.5 9-132.1 9s-102.7 2.6-132.1-9c-19.6-7.8-34.7-22.9-42.6-42.6-11.7-29.5-9-99.5-9-132.1s-2.6-102.7 9-132.1c7.8-19.6 22.9-34.7 42.6-42.6 29.5-11.7 99.5-9 132.1-9s102.7-2.6 132.1 9c19.6 7.8 34.7 22.9 42.6 42.6 11.7 29.5 9 99.5 9 132.1s2.7 102.7-9 132.1z"/></symbol><symbol class="fsvg-inline--fa ffa-play ffa-w-14" viewBox="0 0 448 512" id="play" xmlns="http://www.w3.org/2000/svg"><path d="M424.4 214.7L72.4 6.6C43.8-10.3 0 6.1 0 47.9V464c0 37.5 40.7 60.1 72.4 41.3l352-208c31.4-18.5 31.5-64.1 0-82.6z"/></symbol><symbol viewBox="0 0 512 512" id="servise-1" xmlns="http://www.w3.org/2000/svg"><path d="M485.547 251.733h-58.88v-153.6c-.029-23.552-19.115-42.638-42.667-42.666H128c-23.552.028-42.638 19.114-42.667 42.667v51.2H38.519C17.255 149.357.023 166.589 0 187.853v230.161c.023 21.264 17.255 38.496 38.519 38.519h136.294a38.46 38.46 0 0 0 36.13-25.6H358.4a8.533 8.533 0 0 0 8.533-8.533v-17.067c0-14.138-11.462-25.6-25.6-25.6h-25.6V345.6H384v84.48c0 14.61 11.844 26.453 26.453 26.453h75.093c14.61 0 26.453-11.844 26.453-26.453V278.187c.001-14.61-11.843-26.454-26.452-26.454zm-289.28 166.281c-.009 11.844-9.609 21.443-21.453 21.453H38.519c-11.844-.009-21.443-9.609-21.453-21.453v-4.147h179.2v4.147zm0-21.214h-179.2V209.067h179.2V396.8zm0-204.8h-179.2v-4.147c.009-11.844 9.609-21.443 21.453-21.453h136.294c11.844.009 21.443 9.609 21.453 21.453V192zm145.066 204.8a8.533 8.533 0 0 1 8.533 8.533v8.533H213.333V396.8h128zm-128-17.067V345.6h85.333v34.133h-85.333zM384 328.533H213.333v-25.6H384v25.6zm0-50.346v7.68H213.333v-98.014c-.024-21.264-17.256-38.496-38.519-38.519H102.4v-51.2c0-14.138 11.461-25.6 25.6-25.6h256c14.138 0 25.6 11.461 25.6 25.6v153.685c-14.242.459-25.561 12.118-25.6 26.368zM494.933 430.08a9.387 9.387 0 0 1-9.387 9.387h-75.093a9.387 9.387 0 0 1-9.387-9.387v-7.68h93.867v7.68zm0-24.747h-93.867v-102.4h93.867v102.4zm0-119.466h-93.867v-7.68a9.387 9.387 0 0 1 9.387-9.387h75.093a9.387 9.387 0 0 1 9.387 9.387v7.68z"/></symbol><symbol viewBox="0 0 64 64" id="servise-2" xmlns="http://www.w3.org/2000/svg"><path d="M55.339 42.61l-.004-.006-.006-.004-2.82-2.82-.002-.003-.003-.002-10.605-10.604 16.989-16.989c.014-.014.021-.034.034-.05.052-.059.094-.124.132-.195.016-.028.039-.051.051-.081.005-.012.006-.023.01-.035s.013-.021.017-.032l2.801-8.457c.013-.037.006-.075.014-.112.015-.067.024-.133.024-.202s-.01-.135-.024-.202c-.008-.037-.001-.075-.014-.112-.008-.023-.026-.039-.035-.062a.973.973 0 0 0-.101-.177c-.036-.053-.069-.104-.114-.147a.934.934 0 0 0-.144-.111 1.021 1.021 0 0 0-.179-.102c-.022-.01-.039-.028-.063-.036-.037-.013-.074-.006-.112-.014a.91.91 0 0 0-.203-.025c-.068 0-.132.01-.198.023-.038.008-.077.001-.115.014l-8.457 2.8c-.008.003-.014.01-.021.012a.983.983 0 0 0-.457.316L34.828 22.1 18.567 5.839l-.002-.003-.003-.002L13.021.293a.999.999 0 0 0-1.414 0L.293 11.607a.999.999 0 0 0 0 1.414L22.1 34.828l-8.488 8.489-.003.002-.002.003-2.824 2.824-.003.002-.002.003-8.189 8.189-.004.005a2.002 2.002 0 0 0 .004 2.824l4.242 4.242c.39.39.902.585 1.414.585s1.024-.195 1.414-.585l19.513-19.513L50.98 63.706a.997.997 0 0 0 1.413.001l11.314-11.314a.999.999 0 0 0 0-1.414zm-35.366 5.66l-4.242-4.242 19.803-19.804.003-.002.002-.003 15.96-15.96v3.215a1 1 0 0 0 1 1h3.271zM56.482 5.56l1.957 1.957-.979 2.957h-3.963V6.548zm2.662-.168l-.536-.535.801-.265zm-56.73 6.922l9.9-9.9 1.301 1.301-.707.707a.999.999 0 1 0 1.414 1.414l.707-.707 1.414 1.414-2.122 2.123a.999.999 0 1 0 1.414 1.414l2.122-2.123 1.416 1.416-.708.707a.999.999 0 1 0 1.414 1.414l.708-.707 1.414 1.414-2.123 2.123a.999.999 0 1 0 1.414 1.414l2.123-2.123 1.414 1.414-.707.707a.999.999 0 1 0 1.414 1.414l.707-.707 1.414 1.414-2.123 2.123a.999.999 0 1 0 1.414 1.414l2.123-2.123 1.414 1.414-.707.707a.999.999 0 1 0 1.414 1.414L32 22.1l1.414 1.414-9.9 9.9zm5.83 47.684l-4.242-4.242.002-.003L8.657 51.1l4.242 4.243zm6.069-6.069l-4.242-4.243 1.416-1.416a.995.995 0 0 0 1.413 0 .998.998 0 0 0 0-1.413l1.416-1.415 4.242 4.242-1.415 1.415a.999.999 0 1 0-1.414 1.414zm37.373 7.657L30.585 40.485l9.9-9.9L41.9 32l-.708.707a.999.999 0 1 0 1.414 1.414l.708-.707 1.414 1.414-2.123 2.123a.999.999 0 1 0 1.414 1.414l2.123-2.123 1.414 1.414-.707.707a.999.999 0 1 0 1.414 1.414l.707-.707 1.414 1.414-2.122 2.123a.999.999 0 1 0 1.414 1.414l2.122-2.123 1.414 1.414-.707.709a1.001 1.001 0 0 0 1.416 1.414l.707-.707 1.413 1.413-2.123 2.122a.999.999 0 1 0 1.414 1.414l2.123-2.122 1.415 1.415-.708.707a.999.999 0 1 0 1.414 1.414l.708-.707 1.301 1.301z"/></symbol><symbol viewBox="0 0 512 512" id="servise-3" xmlns="http://www.w3.org/2000/svg"><path d="M358.614 68.408H332.96c-12.075 0-22.184 8.565-24.579 19.938-19.694 9.853-116.345 55.616-243.614 72.367-7.147.941-13.284 4.825-17.252 10.308H25.119C11.268 171.022 0 182.29 0 196.141v51.307c0 13.851 11.268 25.119 25.119 25.119h22.398c3.967 5.483 10.105 9.368 17.251 10.308 1.279.169 2.549.346 3.823.521l39.388 141.798c3.009 10.831 12.961 18.396 24.203 18.396h46.829l.026.002.031-.002h8.524a8.017 8.017 0 0 0 0-16.034h-2.457l-35.771-128.768c84.108 20.495 143.984 48.934 159.018 56.455 2.394 11.373 12.504 19.938 24.579 19.938h25.653c13.851 0 25.119-11.268 25.119-25.119V93.527c0-13.851-11.268-25.119-25.119-25.119zM42.756 256.533H25.119c-5.01 0-9.086-4.076-9.086-9.086V196.14c0-5.01 4.076-9.086 9.086-9.086h17.637v69.479zm125.737 171.023h-36.311a9.111 9.111 0 0 1-8.753-6.654L85.945 285.971a798.956 798.956 0 0 1 45.631 8.69l36.917 132.895zm199.206-77.494c0 5.01-4.076 9.086-9.086 9.086H332.96c-5.01 0-9.086-4.076-9.086-9.086V161.94a8.017 8.017 0 0 0-16.034 0v175.216c-31.563-14.988-123.577-54.724-240.981-70.177-4.602-.605-8.071-4.482-8.071-9.017v-72.335c0-4.535 3.47-8.411 8.071-9.017 117.404-15.452 209.418-55.189 240.981-70.176v21.301a8.017 8.017 0 0 0 16.034 0V93.527c0-5.01 4.076-9.086 9.086-9.086h25.653c5.01 0 9.086 4.076 9.086 9.086v256.535zm136.284-136.284h-85.512a8.017 8.017 0 0 0 0 16.034h85.512a8.017 8.017 0 0 0 0-16.034zm-18.285-80.653a8.016 8.016 0 0 0-10.526-4.21l-8.552 3.665a8.019 8.019 0 1 0 3.162 15.386 7.99 7.99 0 0 0 3.154-.65l8.552-3.665a8.016 8.016 0 0 0 4.21-10.526zm-34.205 14.659a8.017 8.017 0 0 0-10.526-4.21l-25.653 10.995a8.016 8.016 0 0 0-4.21 10.526 8.02 8.02 0 0 0 7.372 4.86 7.99 7.99 0 0 0 3.154-.65l25.653-10.995a8.016 8.016 0 0 0 4.21-10.526zm29.994 152.153l-8.576-3.675a8.017 8.017 0 0 0-6.316 14.736l8.576 3.675a7.99 7.99 0 0 0 3.154.65 8.018 8.018 0 0 0 7.372-4.861 8.013 8.013 0 0 0-4.21-10.525zm-34.216-14.664l-25.641-10.989a8.017 8.017 0 0 0-6.316 14.736l25.641 10.989a7.99 7.99 0 0 0 3.154.65 8.018 8.018 0 0 0 3.162-15.386z"/></symbol><symbol viewBox="0 0 60 60" id="servise-4" xmlns="http://www.w3.org/2000/svg"><path d="M20 49c-2.206 0-4 1.794-4 4s1.794 4 4 4 4-1.794 4-4-1.794-4-4-4zm0 6c-1.103 0-2-.897-2-2s.897-2 2-2 2 .897 2 2-.897 2-2 2zM17 5h4a1 1 0 1 0 0-2h-4a1 1 0 1 0 0 2zm7 0h1a1 1 0 1 0 0-2h-1a1 1 0 1 0 0 2z"/><path d="M56 12H38V4.405A4.41 4.41 0 0 0 33.595 0H8.405A4.41 4.41 0 0 0 4 4.405v51.189A4.41 4.41 0 0 0 8.405 60h25.189A4.41 4.41 0 0 0 38 55.595V33h18V12zM8.405 2h25.189A2.408 2.408 0 0 1 36 4.405V6H6V4.405A2.408 2.408 0 0 1 8.405 2zm25.19 56H8.405A2.408 2.408 0 0 1 6 55.595V48h30v7.595A2.408 2.408 0 0 1 33.595 58zM36 46H6V8h30v4H18v21h4v7l9.333-7H36v13zm18-15H30.667L24 36v-5h-4V14h34v17z"/><path d="M25 21h10a1 1 0 1 0 0-2H25a1 1 0 1 0 0 2zm-1 4a1 1 0 0 0 1 1h24a1 1 0 1 0 0-2H25a1 1 0 0 0-1 1z"/></symbol><symbol viewBox="0 0 58 58" id="servise-5" xmlns="http://www.w3.org/2000/svg"><path d="M36.537 28.156l-11-7a1.005 1.005 0 0 0-1.019-.033A1.002 1.002 0 0 0 24 22v14a1.001 1.001 0 0 0 1.537.844l11-7a1.002 1.002 0 0 0 0-1.688zM26 34.179V23.821L34.137 29 26 34.179z"/><path d="M57 6H1a1 1 0 0 0-1 1v44a1 1 0 0 0 1 1h56a1 1 0 0 0 1-1V7a1 1 0 0 0-1-1zM10 28H2v-9h8v9zm-8 2h8v9H2v-9zm10 10V8h34v42H12V40zm44-12h-8v-9h8v9zm-8 2h8v9h-8v-9zm8-22v9h-8V8h8zM2 8h8v9H2V8zm0 42v-9h8v9H2zm54 0h-8v-9h8v9z"/></symbol><symbol viewBox="0 0 60 60" id="servise-6" xmlns="http://www.w3.org/2000/svg"><path d="M8 16h15a1 1 0 1 0 0-2H8a1 1 0 1 0 0 2zm0-3h9a1 1 0 1 0 0-2H8a1 1 0 1 0 0 2zm16 5a1 1 0 0 0-1-1H8a1 1 0 1 0 0 2h15a1 1 0 0 0 1-1z"/><path d="M60 4H31V1a1 1 0 1 0-2 0v3H0v42h27.586L15.293 58.293a.999.999 0 1 0 1.414 1.414L29 47.414V57a1 1 0 1 0 2 0v-9.586l12.293 12.293a.997.997 0 0 0 1.414 0 .999.999 0 0 0 0-1.414L32.414 46H60V4zm-2 40H2V6h56v38z"/><path d="M41 20h4.586L33.6 31.986l-8.293-8.293a.999.999 0 0 0-1.414 0l-12.6 12.6a.999.999 0 1 0 1.414 1.414L24.6 25.814l8.293 8.293a.997.997 0 0 0 1.414 0L47 21.414V26a1 1 0 1 0 2 0v-7a.996.996 0 0 0-1-1h-7a1 1 0 1 0 0 2z"/></symbol><symbol class="msvg-inline--fa mfa-vk mfa-w-18" viewBox="0 0 576 512" id="vk" xmlns="http://www.w3.org/2000/svg"><path d="M545 117.7c3.7-12.5 0-21.7-17.8-21.7h-58.9c-15 0-21.9 7.9-25.6 16.7 0 0-30 73.1-72.4 120.5-13.7 13.7-20 18.1-27.5 18.1-3.7 0-9.4-4.4-9.4-16.9V117.7c0-15-4.2-21.7-16.6-21.7h-92.6c-9.4 0-15 7-15 13.5 0 14.2 21.2 17.5 23.4 57.5v86.8c0 19-3.4 22.5-10.9 22.5-20 0-68.6-73.4-97.4-157.4-5.8-16.3-11.5-22.9-26.6-22.9H38.8c-16.8 0-20.2 7.9-20.2 16.7 0 15.6 20 93.1 93.1 195.5C160.4 378.1 229 416 291.4 416c37.5 0 42.1-8.4 42.1-22.9 0-66.8-3.4-73.1 15.4-73.1 8.7 0 23.7 4.4 58.7 38.1 40 40 46.6 57.9 69 57.9h58.9c16.8 0 25.3-8.4 20.4-25-11.2-34.9-86.9-106.7-90.3-111.5-8.7-11.2-6.2-16.2 0-26.2.1-.1 72-101.3 79.4-135.6z"/></symbol><symbol viewBox="-128 0 438 438.857" id="why-1" xmlns="http://www.w3.org/2000/svg"><path d="M181.68 186.824a9.147 9.147 0 0 0-7.535-3.969h-64V9.145a9.148 9.148 0 0 0-7.473-8.993 9.142 9.142 0 0 0-10.207 5.711L1.035 243.574a9.157 9.157 0 0 0 1 8.457A9.139 9.139 0 0 0 9.575 256h64v173.715a9.148 9.148 0 0 0 7.472 8.992 9.44 9.44 0 0 0 1.676.148 9.15 9.15 0 0 0 8.527-5.859l91.43-237.715a9.146 9.146 0 0 0-1-8.457zM91.86 380.473V246.855a9.14 9.14 0 0 0-9.145-9.14H22.887L91.859 58.383V192c0 5.047 4.09 9.145 9.141 9.145h59.832zm0 0"/></symbol><symbol viewBox="0 0 475.48 475.48" id="why-2" xmlns="http://www.w3.org/2000/svg"><path d="M474.041 238.838c-1.751-8.116-7.387-14.889-15.074-18.116-7.653-3.213-16.391-2.501-23.371 1.907-22.951 14.493-59.319 26.177-102.958 33.15-6.156-39.38-9.673-82.237-10.693-130.323-.208-11.132-8.575-20.229-19.471-21.161-12.434-1.046-24.942 1.183-37.04 3.338-9.701 1.729-18.842 3.372-27.678 3.346-9.169-.015-18.142-1.648-27.641-3.377-11.875-2.161-24.153-4.396-37.114-3.305-10.885.932-19.251 10.029-19.459 21.142-1.02 48.102-4.536 90.962-10.693 130.342-43.645-6.974-80.012-18.657-102.955-33.152-6.978-4.406-15.713-5.12-23.365-1.91a25.546 25.546 0 0 0-15.094 18.133A64.088 64.088 0 0 0 0 252.22c0 32.879 25.451 63.338 71.664 85.767 44.487 21.592 103.467 33.483 166.076 33.483 62.612 0 121.594-11.891 166.08-33.483 46.211-22.429 71.66-52.888 71.66-85.767 0-4.469-.484-8.973-1.439-13.382zM237.73 125.978c10.171-.002 20.413-1.811 30.334-3.578 4.428-.789 8.762-1.56 13.009-2.166l-24.478 10.282c-11.628 4.886-26.074 4.886-37.703 0l-24.734-10.389c4.358.614 8.764 1.413 13.27 2.233 9.731 1.77 19.792 3.601 30.302 3.618zm-69.191-.241c.001-.034.005-.067.006-.101l44.538 18.708c7.607 3.197 16.133 4.794 24.662 4.794 8.527 0 17.056-1.598 24.661-4.794l44.534-18.707c.001.039.007.078.007.117 1.212 57.175 5.901 107.14 14.334 152.738.017 1.266-.947 3.068-2.679 4.989-13.379 14.845-51.657 22.941-80.839 23.021-29.224-.08-67.501-8.176-80.88-23.022-1.731-1.921-2.695-3.722-2.678-4.989 8.433-45.595 13.122-95.561 14.334-152.754zM397.27 324.493c-42.485 20.621-99.141 31.977-159.53 31.977-60.385 0-117.04-11.356-159.527-31.977C37.45 304.708 15 279.041 15 252.22c0-3.365.372-6.806 1.1-10.212.733-3.386 3.004-6.104 6.231-7.457 3.189-1.337 6.671-1.06 9.553.76 24.592 15.536 62.916 27.964 108.499 35.265-.331 1.869-.659 3.741-1.003 5.595a7.365 7.365 0 0 0-.088.611c-.398 3.932.396 10.028 6.448 16.744 14.749 16.366 52.573 27.872 92.023 27.98 39.409-.108 77.233-11.614 91.982-27.979 6.052-6.716 6.847-12.812 6.449-16.744a7.365 7.365 0 0 0-.088-.611c-.344-1.854-.672-3.727-1.003-5.596 45.575-7.3 83.9-19.727 108.501-35.263 2.884-1.821 6.368-2.098 9.555-.76 3.223 1.353 5.489 4.069 6.22 7.455.73 3.373 1.1 6.809 1.1 10.213.001 26.821-22.447 52.488-63.209 72.272z"/><path d="M199.202 257.969a7.5 7.5 0 0 0 5.458 3.678l16.762 2.34 10.407 13.346a7.5 7.5 0 0 0 11.83 0l10.407-13.346 16.762-2.34a7.498 7.498 0 0 0 5.914-10.244l-6.354-15.686 6.354-15.686a7.498 7.498 0 0 0-5.914-10.244l-16.762-2.34-10.407-13.346a7.5 7.5 0 0 0-11.83 0l-10.407 13.346-16.762 2.34a7.498 7.498 0 0 0-5.914 10.244l6.354 15.686-6.354 15.686a7.498 7.498 0 0 0 .456 6.566zm20.942-25.068l-3.884-9.588 10.245-1.43a7.497 7.497 0 0 0 4.878-2.816l6.361-8.158 6.361 8.158a7.497 7.497 0 0 0 4.878 2.816l10.246 1.43-3.884 9.588a7.497 7.497 0 0 0 0 5.632l3.884 9.588-10.246 1.43a7.497 7.497 0 0 0-4.878 2.816l-6.361 8.158-6.361-8.158a7.497 7.497 0 0 0-4.878-2.816l-10.245-1.43 3.884-9.588a7.506 7.506 0 0 0 0-5.632z"/></symbol><symbol viewBox="0 0 299.429 299.429" id="why-3" xmlns="http://www.w3.org/2000/svg"><path d="M245.185 44.209H54.245L0 116.533l149.715 138.688L299.43 116.539l-54.245-72.33zm-38.439 77.569l-57.007 112.1-56.53-112.1h113.537zM98.483 109.844l51.232-51.232 51.232 51.232H98.483zm65.636-53.702h69.323L213.876 105.9l-49.757-49.758zm-77.808 49l-16.331-49h65.331l-49 49zm-6.462 16.636l49.632 98.429-106.258-98.429h56.626zm140.287 0h56.071l-106.013 98.203 49.942-98.203zm5.012-11.934l18.694-47.538 35.652 47.538h-54.346zM58.266 58.738l17.035 51.112H19.929l38.337-51.112z"/></symbol><symbol viewBox="0 0 245.019 245.019" id="why-4" xmlns="http://www.w3.org/2000/svg"><path d="M237.862 110.984L143.818 4.672c-6.229-6.229-16.432-6.229-22.597 0-6.229 6.229-6.229 16.368 0 22.597l84.192 95.22-84.192 95.22c-6.229 6.229-6.229 16.432 0 22.597 6.198 6.229 16.368 6.229 22.597 0l94.044-106.312c3.178-3.178 4.64-7.342 4.64-11.505s-1.493-8.326-4.64-11.505z"/><path d="M128.467 122.521c.064-4.164-1.462-8.359-4.64-11.505L29.814 4.672c-6.229-6.229-16.4-6.229-22.597 0-6.229 6.229-6.229 16.368 0 22.597l84.192 95.22L7.217 217.71c-6.261 6.261-6.261 16.368-.032 22.661 6.198 6.198 16.368 6.198 22.597 0l94.044-106.344c3.179-3.179 4.704-7.342 4.641-11.506z"/></symbol></svg>