<svg xmlns="http://www.w3.org/2000/svg" viewBox="0 0 248 208"><title>servise-1</title><g id="Слой_2" data-name="Слой 2"><g id="Слой_1-2" data-name="Слой 1"><path d="M0,154V8L8,0H203c6.45,3.74,8.61,9.38,8.06,16.67-.44,5.78-.09,11.62-.09,17.44V49.77c8.17,0,15.63.28,23.06-.09,6.29-.3,11,1.7,14,7.32V200l-8,8H160c-6.12-2.62-8.51-7.14-8.11-13.86.46-7.63.08-15.31.07-23V163H134.35c-2.21,9.95,2.28,17,8.37,23.62,1.25,1.37,2.35,4.2,1.74,5.56s-3.44,2.45-5.3,2.46q-33.47.26-66.92,0c-1.86,0-4.63-1.1-5.28-2.49s.74-3.82,1.69-5.53,2.58-3.05,3.76-4.65a23,23,0,0,0,4.2-19.35H71.18c-18.65,0-37.29-.19-55.93.09C8.13,162.82,3,160.51,0,154ZM203.08,49.76c0-12,0-23.34,0-34.64,0-6.59-.58-7.17-7.11-7.17H15C8.42,8,8,8.42,8,15.07Q7.94,65.54,8,116c0,1.6.14,3.2.22,4.8H152v-5.6l-.09-51.47c0-10.61,3.37-14,14-14ZM160,174.59h79.67V81.22H160Zm-8.28-44.93H8c0,6,0,11.68,0,17.33,0,7.4.4,7.78,8,7.79H151.76Zm8.13,53.53c0,4.49.1,8.62,0,12.75-.1,3,1.25,4.14,4.17,4.13,24,0,47.94,0,71.91-.16,1.34,0,3.69-2,3.82-3.19.47-4.39.18-8.86.18-13.53Zm.34-110.89h79.82a67.83,67.83,0,0,1,.06-8.36c.69-5.24-1.64-6.48-6.52-6.42-20.49.21-41,.09-61.46.08C158.21,57.59,158.07,57.74,160.23,72.3Zm-35.73,91H86.44c-2,8.2-4,15.77-5.84,23.33h50C128.61,179,126.64,171.44,124.5,163.27Z"/><path d="M200,197.41c-3.63-.34-5.91-2.15-5.92-6,0-3.53,2.08-5.65,5.49-5.83,3.7-.2,6.08,2,6.23,5.62S203.64,197,200,197.41Z"/></g></g></svg>