<svg xmlns="http://www.w3.org/2000/svg" viewBox="0 0 228.71 150"><defs><style>.cls-1{fill:#f8d74e;}</style></defs><title>why-1</title><g id="Слой_2" data-name="Слой 2"><g id="Слой_1-2" data-name="Слой 1"><path class="cls-1" d="M150,150h-2c-4.25-10.92-11.14-20-19.7-27.86a36.77,36.77,0,0,0-19-9.46c-8.22-1.37-14.73,1.3-19.74,7.8a37.29,37.29,0,0,0-7.32,18.87c-.44,3.82-1.32,4.67-5.12,3.6q-28.58-8-57.31-15.55c-3.39-.88-4.89-2.55-5.72-5.83C10.21,105.92,7,90,1.69,74.82c-3.94-11.28-.61-19.54,6-27.83.21-.26.41-.53.61-.79,19.43-25,45.63-38,76.28-43.27C91.67,1.71,99,2.26,106,0h10c4.32,2,9,1.23,13.57,1.81,42.85,5.53,75.1,27.1,97.55,63.77a9.48,9.48,0,0,1,1.19,8q-7.38,27.73-14.3,55.6c-.71,2.88-2.2,4.08-4.91,4.75-9.21,2.27-18.41,4.58-27.54,7.17C171,144.08,160.23,146,150,150ZM20.23,110.29c2.13-1.12,2.59-3,3.5-4.52a155.17,155.17,0,0,1,24-30.6c18.17-17.7,39.64-25.64,65.05-22.28,19.76,2.61,36.32,11.44,50.2,25.52,1.88,1.9,3.53,3,6.5,2.21q22.35-6.2,44.84-11.94c3.54-.9,3.69-2.05,1.81-4.91C204.56,46.3,189.8,32.3,171,23.08,134.75,5.29,97.45,5.35,60,18.62a93.56,93.56,0,0,0-49.1,39.07c-1.38,2.18-3.38,4.23-2.58,7.25C12.26,80,16.22,95.07,20.23,110.29Zm128.12,21.56c2.71-10.63,5.14-20.07,7.51-29.54C160,85.76,160,85.76,146.39,75.36c-22.3-17.06-55.28-19.47-78-5.38C49.88,81.49,37.64,98.61,27.16,117.23c-1.71,3,.38,3.25,2.36,3.79,13,3.52,26.07,6.82,39,10.71,4.73,1.43,6.26.46,7.94-4.22,8.45-23.51,27.85-30.24,49.45-17.64C134.83,115.09,141.48,122.69,148.35,131.85Zm9,6.64,1.41-.34c15-3.93,29.9-7.9,44.88-11.74,2.25-.58,2.73-2.16,3.19-4,3.58-13.84,7.09-27.71,10.77-41.53,1-3.81-.07-4.34-3.59-3.37q-21.17,5.82-42.44,11.27c-2.86.72-4.1,2.08-4.72,4.89-1.35,6.17-3.07,12.26-4.61,18.39-1.95,7.74-3.91,15.48-5.78,23.24C156.13,136.53,155.06,138.37,157.3,138.49Z"/></g></g></svg>